<svg width="20" height="20" viewBox="0 0 20 20" fill="none" xmlns="http://www.w3.org/2000/svg">
<path d="M6.66663 9.99967C6.66663 10.2207 6.75442 10.4327 6.9107 10.5889C7.06698 10.7452 7.27895 10.833 7.49996 10.833H12.5C12.721 10.833 12.9329 10.7452 13.0892 10.5889C13.2455 10.4327 13.3333 10.2207 13.3333 9.99967C13.3333 9.77866 13.2455 9.5667 13.0892 9.41042C12.9329 9.25414 12.721 9.16634 12.5 9.16634H7.49996C7.27895 9.16634 7.06698 9.25414 6.9107 9.41042C6.75442 9.5667 6.66663 9.77866 6.66663 9.99967ZM8.33329 12.4997H5.83329C5.17025 12.4997 4.53437 12.2363 4.06553 11.7674C3.59668 11.2986 3.33329 10.6627 3.33329 9.99967C3.33329 9.33663 3.59668 8.70075 4.06553 8.23191C4.53437 7.76307 5.17025 7.49967 5.83329 7.49967H8.33329C8.55431 7.49967 8.76627 7.41188 8.92255 7.2556C9.07883 7.09932 9.16663 6.88735 9.16663 6.66634C9.16663 6.44533 9.07883 6.23337 8.92255 6.07709C8.76627 5.92081 8.55431 5.83301 8.33329 5.83301H5.83329C4.72822 5.83301 3.66842 6.27199 2.88701 7.0534C2.10561 7.8348 1.66663 8.89461 1.66663 9.99967C1.66663 11.1047 2.10561 12.1646 2.88701 12.946C3.66842 13.7274 4.72822 14.1663 5.83329 14.1663H8.33329C8.55431 14.1663 8.76627 14.0785 8.92255 13.9223C9.07883 13.766 9.16663 13.554 9.16663 13.333C9.16663 13.112 9.07883 12.9 8.92255 12.7438C8.76627 12.5875 8.55431 12.4997 8.33329 12.4997ZM14.1666 5.83301H11.6666C11.4456 5.83301 11.2337 5.92081 11.0774 6.07709C10.9211 6.23337 10.8333 6.44533 10.8333 6.66634C10.8333 6.88735 10.9211 7.09932 11.0774 7.2556C11.2337 7.41188 11.4456 7.49967 11.6666 7.49967H14.1666C14.8297 7.49967 15.4656 7.76307 15.9344 8.23191C16.4032 8.70075 16.6666 9.33663 16.6666 9.99967C16.6666 10.6627 16.4032 11.2986 15.9344 11.7674C15.4656 12.2363 14.8297 12.4997 14.1666 12.4997H11.6666C11.4456 12.4997 11.2337 12.5875 11.0774 12.7438C10.9211 12.9 10.8333 13.112 10.8333 13.333C10.8333 13.554 10.9211 13.766 11.0774 13.9223C11.2337 14.0785 11.4456 14.1663 11.6666 14.1663H14.1666C15.2717 14.1663 16.3315 13.7274 17.1129 12.946C17.8943 12.1646 18.3333 11.1047 18.3333 9.99967C18.3333 8.89461 17.8943 7.8348 17.1129 7.0534C16.3315 6.27199 15.2717 5.83301 14.1666 5.83301Z" fill="white"/>
</svg>
