<svg width="16" height="16" viewBox="0 0 16 16" fill="none" xmlns="http://www.w3.org/2000/svg">
<path fill-rule="evenodd" clip-rule="evenodd" d="M11.5109 2.40816L13.5733 4.4706C14.1499 5.0199 14.1735 5.93212 13.626 6.51046L6.85157 13.2849C6.60621 13.5282 6.28462 13.6797 5.94078 13.7139L2.80196 14H2.73422C2.53414 14.0011 2.34184 13.9226 2.19979 13.7817C2.04099 13.6235 1.96097 13.4027 1.9815 13.1795L2.30517 10.0407C2.33942 9.69685 2.49091 9.37526 2.73422 9.12991L9.50866 2.35546C10.0926 1.8621 10.9537 1.88476 11.5109 2.40816ZM8.99674 4.96758L11.014 6.98486L12.5195 5.51707L10.4645 3.46215L8.99674 4.96758Z" fill="#575757"/>
</svg>
