<svg width="16" height="16" viewBox="0 0 16 16" fill="none" xmlns="http://www.w3.org/2000/svg">
<path fill-rule="evenodd" clip-rule="evenodd" d="M11.5108 2.40816L13.5733 4.4706C14.1498 5.0199 14.1734 5.93212 13.6259 6.51046L6.85151 13.2849C6.60615 13.5282 6.28456 13.6797 5.94072 13.7139L2.8019 14H2.73415C2.53408 14.0011 2.34178 13.9226 2.19973 13.7817C2.04093 13.6235 1.96091 13.4027 1.98144 13.1795L2.30511 10.0407C2.33936 9.69685 2.49085 9.37526 2.73415 9.12991L9.50859 2.35546C10.0926 1.8621 10.9536 1.88476 11.5108 2.40816ZM8.99668 4.96758L11.014 6.98486L12.5194 5.51707L10.4645 3.46215L8.99668 4.96758Z" fill="black" fill-opacity="0.32"/>
</svg>
