<svg width="16" height="16" viewBox="0 0 16 16" fill="none" xmlns="http://www.w3.org/2000/svg">
<path d="M8.00008 15.2379C8.99945 15.2379 9.8096 14.4278 9.8096 13.4284H6.19056C6.19056 14.4278 7.00071 15.2379 8.00008 15.2379Z" fill="white"/>
<path d="M8.90046 1.75608C8.90336 1.72661 8.90484 1.69672 8.90484 1.66648C8.90484 1.16679 8.49977 0.761719 8.00008 0.761719C7.50039 0.761719 7.09532 1.16679 7.09532 1.66648C7.09532 1.69672 7.0968 1.72661 7.0997 1.75609C5.03264 2.17355 3.47629 4.00017 3.47629 6.19029C3.47629 7.18336 3.02389 11.6189 1.66675 12.5236H14.3334C12.9763 11.6189 12.5239 7.18336 12.5239 6.19029C12.5239 4.00015 10.9675 2.17353 8.90046 1.75608Z" fill="white"/>
</svg>
