<svg width="16" height="17" viewBox="0 0 16 17" fill="none" xmlns="http://www.w3.org/2000/svg">
<path d="M11.11 10.4316H10.4922L10.2732 10.2205C11.2117 9.12621 11.6966 7.63327 11.4307 6.04654C11.0631 3.87358 9.24865 2.13834 7.05877 1.87258C3.75049 1.46613 0.966215 4.24877 1.37291 7.55511C1.63882 9.74371 3.37508 11.5571 5.54932 11.9245C7.13698 12.1902 8.63079 11.7056 9.72573 10.7677L9.9369 10.9865V11.604L13.2608 14.926C13.5815 15.2465 14.1055 15.2465 14.4262 14.926C14.7468 14.6055 14.7468 14.0818 14.4262 13.7613L11.11 10.4316ZM6.41745 10.4316C4.47002 10.4316 2.898 8.86045 2.898 6.91416C2.898 4.96788 4.47002 3.39678 6.41745 3.39678C8.36488 3.39678 9.9369 4.96788 9.9369 6.91416C9.9369 8.86045 8.36488 10.4316 6.41745 10.4316Z" fill="black" fill-opacity="0.32"/>
</svg>
